# xmcd
#
# Track frame offsets:
#	150
#	18802
#	40165
#	55442
#	81877
#	103587
#	120340
#	136652
#	154942
#	171590
#	189562
#	204995
#	225172
#	243740
#	260985
#	277910
#	295967
#	313980
#
# Disc length: 4410 seconds
#
# Revision: 1
# Processed by: cddbd v1.5.1PL0 Copyright (c) Steve Scherf et al.
# Submitted via: audiograbber 1.83.01
#
DISCID=fe113812
DTITLE=Larry Schuba and Western Union - Die Großen Single-Hits
DYEAR=1994
DGENRE=Country
TTITLE0=Mädchen aus Berlin
TTITLE1=Bunte Tränen
TTITLE2=Fräulein
TTITLE3=Transit Cowboy
TTITLE4=L.I.E.B.E.
TTITLE5=Ich möcht' so gern mal nach Nashville
TTITLE6=Nach Süden
TTITLE7=Gottseidank ist es endlich wieder Sommer
TTITLE8=Bärenstark
TTITLE9=Lach mal wieder
TTITLE10=Auf der Autobahn
TTITLE11=Gott ich hoff' der Tag wird gut
TTITLE12=Wieder unterwegs
TTITLE13=Baby sag' ja
TTITLE14=Bi-Ba-Baby
TTITLE15=Du bist der Grund dafür
TTITLE16=Nur ein Kuß
TTITLE17=DANKE
EXTD=
EXTT0=
EXTT1=
EXTT2=
EXTT3=
EXTT4=
EXTT5=
EXTT6=
EXTT7=
EXTT8=
EXTT9=
EXTT10=
EXTT11=
EXTT12=
EXTT13=
EXTT14=
EXTT15=
EXTT16=
EXTT17=
PLAYORDER=
